<svg xmlns="http://www.w3.org/2000/svg" viewBox="0 0 1458.4 968.5"><title>definitivostia</title><circle cx="1200.1" cy="420.5" r="29.3" transform="translate(321.7 1352.3) rotate(-67.5)"/><path d="M1475.6,633a22.4,22.4,0,0,0-29.7,11.4c-10,22.3-39,68.3-65.3,68.3-.4,0-4.7,0-5.4-1.1s-7.2-13,6.9-58.9c9.5-30.8,24-63.8,34.6-87.9h0c6.1-13.7,10.4-23.7,12.5-30.1a22.5,22.5,0,1,0-42.9-13.8c-.2.7-.6,1.5-.9,2.6-1.3,4.4,7,18.1,5.6,29.9h0a90.3,90.3,0,0,0-3.8-11.8,80.1,80.1,0,0,0-4.9-10.2V531a.1.1,0,0,0-.1.1c-7.6-13.6-18.3-23.8-31.6-29.5-46-19.7-106.1,19.5-136.8,89.3a201.7,201.7,0,0,0-15.7,56.1h0c-2.3,18.7-1.3,36.5,2.6,52.1h0c-3.8-3.4-6-13.8-9.2-21.4a6.4,6.4,0,0,0-11.2-1.3c-13.4,18.6-30.8,36.1-47.1,36.1-.8,0-4.8-.1-5.6-1.2s-7.2-12.9,6.7-59c9.4-31.2,24.5-66,35.4-91.5,6.5-14.9,11.6-26.6,14.3-34.8a22.5,22.5,0,0,0-42.7-14.5c-2.1,6.4-7.1,18-12.9,31.4-8,18.6-15.7,36.9-22.5,54.5l-.2.2c-21.7,60-90,114.9-126.1,114.9-8.6,0-20.8-2.1-29.7-12s-13.6-27.8-11.4-48.8c5.3-52.1,42.6-110.4,84.6-110.4,7.8,0,10.2,2.7,11.7,7.3,3.9,12.1-1.9,33.7-15.3,43.4a22.5,22.5,0,1,0,26.6,36.4c28.1-20.5,42-61.7,31.5-93.7-7.8-24.1-28.2-38.4-54.5-38.4-34,0-66.5,18.7-91.5,52.7-20.3,27.6-34.5,64.3-38,98.1-.1,1.3-.2,2.5-.2,3.7h-.1c-1.3,16.5.2,30.4,3.2,42h0c-3.9-5.3-5.7-12.5-7.6-17.8a6.4,6.4,0,0,0-11.1-1.8c-18.7,24-38.1,39.3-51.2,39.3-4,0-5.9-.7-6.2-1s-8.3-13.1,14.5-67.6a562.6,562.6,0,0,1,32-63.5,22.7,22.7,0,0,0-13.5-33.4c-39.4-12-70-23.4-76.2-50.6a22.6,22.6,0,0,0-29.4-16.3c-11.3,3.9-17.1,16.2-14.2,27.8a84.1,84.1,0,0,0,18.5,35.6h.1a103.8,103.8,0,0,0,24.7,20.6h0c-10.3-4.3-18.3-9.8-24.5-11.1a6.2,6.2,0,0,0-6.8,3.4C723,601.3,699.7,645.4,679.4,675c-24,35-35.7,37.7-38.6,37.7-5.8,0-10-1.7-12.9-5.2-4.5-5.4-6-15.1-4.1-26,6.5-36.6,27.7-84.8,41.8-116.8,6-13.7,10.4-23.7,12.5-30.1a22.5,22.5,0,1,0-42.9-13.8c-.2.7-.6,1.5-.9,2.6-1.3,4.4,7,18.1,5.6,29.9h0a108.4,108.4,0,0,0-3.8-11.8,80.1,80.1,0,0,0-4.9-10.2.4.4,0,0,0-.1-.3h0c-7.6-13.6-18.4-23.8-31.6-29.5-46-19.7-106.1,19.5-136.8,89.3S443.9,731,489.2,752a64.5,64.5,0,0,0,26.7,5.8,78.4,78.4,0,0,0,27.5-5.3,116.3,116.3,0,0,0,35.3-22c4.6-4.1-4.9-17.1-.3-30.5h0a71.5,71.5,0,0,0,7,24.2h0a69.3,69.3,0,0,0,8,12.2c11.5,13.7,28.3,21.3,47.3,21.3h.1c45.6,0,83-57.7,148-186.7A221.2,221.2,0,0,0,814.6,582c-5.9,11.2-12.9,25.2-19.4,40.3-22.8,52.9-27.3,88.3-14.2,111.4,5.1,9,17.8,24.1,45.6,24.1,29.8,0,56.9-22,77.2-45.3a84.1,84.1,0,0,0,12.6,18.4c15.7,17.3,38.1,26.9,63.2,26.9,33.4,0,70.7-22.6,101.3-49.6h0a331.2,331.2,0,0,0,24.6-24.1h0c-6,18.2-25,26.8-22.8,34.9a57.6,57.6,0,0,0,7.3,17.2c6.4,9.9,19.2,21.6,43.2,21.6,30,0,55-19.9,73.3-41.6,7.3,16.2,18.7,28.8,33.9,35.8a63.7,63.7,0,0,0,26.6,5.8,77.9,77.9,0,0,0,27.5-5.3,120.8,120.8,0,0,0,31.8-18.9c4-3.4-4.4-22.2,1.9-34.1h0c0,10.4,1.5,19.9,4.8,28.1h0a54.1,54.1,0,0,0,4.5,8.6c6.4,9.8,19.1,21.6,43.1,21.6,62.3,0,102.1-85.3,106.4-95A22.5,22.5,0,0,0,1475.6,633ZM527.4,710.3c-7.6,2.9-14.1,3.2-19.3.8-23.3-10.8-21.4-62.8-4.1-102,18.4-42,49.5-67.6,69.8-67.6a20.2,20.2,0,0,1,7.9,1.5c5.2,2.3,9.4,7.3,12.5,15,8.4,21.2,4.9,55.3-8.9,86.8S548.7,702.3,527.4,710.3Zm751.2,0c-7.7,2.9-14.2,3.2-19.4.8-23.3-10.8-21.4-62.8-4.1-102,18.5-42,49.5-67.6,69.9-67.6a20.1,20.1,0,0,1,7.8,1.5c5.3,2.3,9.5,7.3,12.5,15,8.4,21.2,4.9,55.3-8.9,86.8S1299.8,702.3,1278.6,710.3Z" transform="translate(-30.6 -16.1)"/><path d="M1039.2,773.3a19.3,19.3,0,0,0-16.9,8.7c-34,50.6-88.1,78.1-165.6,84.3-69.1,5.5-144.9-7.7-203.2-19.8-45.1-9.3-94.5-21.4-146.8-34.2-40.4-9.8-81.7-19.9-122.9-29.2-14.1-3-24.6-4.6-30.6-6.1,24.5,0,32.7.7,34.3-3.8,36.4-103.9,53-212.5,54.1-219.7a22.5,22.5,0,0,0-44.4-7.7c-19,95.5-101.4,166.9-162.4,166.9-24.4,0-43.9-7.8-57.9-23.3-19.1-21.2-26.9-55.4-22.4-98.9a249,249,0,0,1,7-38.1,292.6,292.6,0,0,0,52.5,3.5,346.4,346.4,0,0,0,111-19.1c113.3-38.9,207.7-132.1,266.6-263A229.1,229.1,0,0,0,617,284.5c-5.8,11.2-12.8,25.3-19.3,40.4-22.8,52.8-27.3,88.2-14.2,111.4,5.1,8.9,17.8,24,45.5,24,23.9,0,46.1-14.1,64.4-31.7a54,54,0,0,0,5.1,10.2c6.5,9.8,19.2,21.5,43.3,21.5,29.7,0,54.5-19.6,72.8-41,12.3,26.2,35.7,41,66.3,41,50.9,0,88.9-42,113.2-124.7a132.8,132.8,0,0,0,37.5-10.2h.2a128.8,128.8,0,0,0,29.9-18.6h0c-8.6,13.2-17.9,20.8-29,26.7a9.5,9.5,0,0,0-4.6,6.1c-9.4,43.5-9.6,77.7,3.8,98.4,9.4,14.4,24.7,22.4,43.1,22.4,62.2,0,102.1-85.3,106.4-95a22.6,22.6,0,0,0-12.5-30.2c-11.2-4.4-23.9,1.5-29,12.5-10.2,22.5-39,67.6-64.9,67.6-4.1,0-4.7-.9-5.2-1.8-2.6-3.9-13.5-29.1,23.1-135.5,3.2-9.2,6.6-18.5,10.1-27.9.1-.2.1-.4.2-.5,21.5-57.8,47.6-116,65.8-156.5,10.5-23.6,17.5-39.2,20.2-47.1a22.5,22.5,0,1,0-42.6-14.5c-2,5.9-9.8,23.2-18.8,43.2-25.8,57.6-48.1,110.1-65.6,156.6a25.9,25.9,0,0,0-1.4,2.9c-.1.5-15.4,41.3-58.4,53.8-4.5,1.3-33.2,8.4-45.6-13.4,14.6,9.8,28.8,7.8,37.7,4.7a10.8,10.8,0,0,0,7.4-11.2c-1.5-18-6.3-36.5-16.6-49.9S962.1,199,947,199c-22.6,0-39.7,19.6-43.6,48.1a18.9,18.9,0,0,0-1.6-3.6,22.5,22.5,0,0,0-30.6-8.7c-33,18.3-58.5,67.4-64.7,115a7.5,7.5,0,0,0-.3,2.7c-2,17.2-1.4,34.1,2.3,49.3h0c-3.8-3.4-5.3-13.8-8.5-21.4a6.4,6.4,0,0,0-11.2-1.3c-13.4,18.7-30.8,36.1-47,36.1-.8,0-4.9,0-5.6-1.2s-7.2-12.9,6.6-58.9c9.4-31.3,24.5-66.1,35.5-91.6,6.4-14.9,11.5-26.6,14.2-34.7a22.5,22.5,0,1,0-42.6-14.5c-2.2,6.4-7.2,18-13,31.4-16.2,37.5-31.1,73.8-39.9,105.9a13.6,13.6,0,0,0-1,3.8c-5.3,20.3-7.9,38.7-6.6,54.4h0c-2-5.8-2.7-15.9-4.1-23.5-.9-5.3-7.7-7-11.2-2.9-16.7,19.7-33.3,31.8-45.1,31.8-4,0-5.8-.7-6.1-1s-8.4-13.1,14.5-67.6a553.8,553.8,0,0,1,32-63.5,22.7,22.7,0,0,0-13.5-33.4c-39.4-12-70-23.4-76.3-50.6a23.2,23.2,0,0,0-5.3-10.2c20.2-6.6,40.5-14,60.5-21.3,47.2-17.3,97.3-35,129.2-36.9a8.9,8.9,0,0,0,8.3-7.4c1.7-10.3,9-21.8,20.7-24.7a.1.1,0,0,1,.1.1,29.4,29.4,0,0,0-13.5,24.7,28.4,28.4,0,0,0,.7,6.6c-.2.6-.3,1-.1,1h.4a29.3,29.3,0,1,0,38.9-35c-49.9-25.8-123,.9-200.2,29.2-42.7,15.6-86.7,31.7-125.5,38.2-15.3,2.4-27.1,2.4-30.2,1.7,20.1-2.7,30.2-9.5,28.5-25.5-3.3-31.2-11.8-63-31.1-80.9-13.8-12.9-31.2-17.5-50.3-13.4-17.2,3.6-30.6,15.5-38.5,32.1l-.3-1.9A22.5,22.5,0,0,0,344.7,59c-54.6,13-103,54.7-136.2,117.2-29.1,55-42.8,119.7-36.4,173.2,2.5,21.9,8.3,40.9,16.9,56.8h0a108.5,108.5,0,0,0,20,26.7h0c-14.8-4.7-20.6-18.3-28.8-15.5a3.8,3.8,0,0,0-1.8,1.3l-4.8,6.2a336.4,336.4,0,0,0-41.8,74.5A354.1,354.1,0,0,1,64,471.3c-.1,0-.2,0-.2-.1l-2.4-1.1H61a22.9,22.9,0,0,0-8.5-1.3h-.1a23.4,23.4,0,0,0-8.2,1.9l-.4.2a11.9,11.9,0,0,0-2.2,1.2h-.2l-2.2,1.6-.4.3-1.6,1.5-.6.6-1.3,1.7-.4.5a10.7,10.7,0,0,0-1.3,2.1c-.1.1-.1.1-.1.2l-.3.6-.9,2-.3.9a10.9,10.9,0,0,0-.5,1.7,27.5,27.5,0,0,0-.9,8.3,18.9,18.9,0,0,0,10.1,15.8l1.6.9.2.2c34.3,18.7,69.6,31.6,105.5,38.6h0c-17,.5-32.3-.3-33.6,6.3-2,10.1-3.8,20.1-4.8,30-5.7,56.6,6,102.8,33.9,133.7,22.5,25,54.1,38.2,91.3,38.2,44.2,0,90-21.8,129.4-61.4,7.3-7.5,20-24.1,19.4-22-4.7,17.8-21.6,29.9-25,41.4-6.2,21.3-11.2,36.4-19.1,57.7-93.7-18.3-163.9-1.1-208.7,51.2-35.4,41.4-34.5,99.5,2.3,134.9,14.9,14.5,36.7,25,62.9,25,28.2,0,61.5-12.1,96.8-44.5,29.4-27.1,54-68.6,74.1-114.6,43.1,9.6,86.7,20.2,129.1,30.6,52.7,12.9,102.5,25,148.3,34.5,61.3,12.7,141.1,26.6,216,20.6,89.8-7.1,156.5-41.5,198.1-102.2C1067.9,795.2,1059.8,774.5,1039.2,773.3ZM893.1,274.2a22.6,22.6,0,0,0,9.6-10.5c.8,17.6,6.5,34,16.3,46.6a66.9,66.9,0,0,0,29.1,21.4c15,5.1,23,5.5,31,4.7-3.4,2.5-17.1,4.9-28,5a9,9,0,0,0-8.4,5.8c-12.8,33.9-32.9,68-61.8,68-11.1,0-23.1-2.8-28.5-23.2-2.5-9.7-2.9-20.8-1.7-32.2l.3-2.7C855.3,322.1,874.1,284.7,893.1,274.2ZM233.2,391.4c11.9,11.1,23.3,14.9,31.5,10.2,15.9-9.1,34.2-15.4,54.6-15.4,11.4,0,20.2,2.3,26.6,6.8-19.2,13.7-40.8,22.2-64.5,22.2C265.2,415.2,246.5,410.2,233.2,391.4ZM492.8,209.3c11.4-1.6,19.9-2.7,28.4-4.9a9,9,0,0,0,6.5-6c3.4-10.1,15.3-21.6,33.1-16.6a22.8,22.8,0,0,0-8.2.3,22.5,22.5,0,0,0-16.9,27,83.8,83.8,0,0,0,18.9,37.1.1.1,0,0,0-.1.1c0,.1.2.3.7.6a105.6,105.6,0,0,0,24.5,20.2h0c-15.5-6.6-20.5-13.9-24.7-13.8a5.5,5.5,0,0,0-5.1,3.1c-33.3,73.8-78.8,134-132.4,177.7-10.9,8.9-18,41.8-38.2,52.5h0a121.5,121.5,0,0,0,19.6-38.4h0a95.1,95.1,0,0,0,2.8-44.5c52.8-54,83.4-133.2,89.3-175.6C491.1,227.9,492,220.7,492.8,209.3Zm-72.3-120a17.3,17.3,0,0,1,3.7-.4,8.7,8.7,0,0,1,6.5,2.7c9.5,8.8,17.1,36.7,18.8,72-30.1-7.5-37-31.9-38.6-40.9C407.8,104.5,414.6,90.5,420.5,89.3Zm-64.9,13.3a21.9,21.9,0,0,0,11-6.2,95.8,95.8,0,0,0-.1,33.8c4.2,24.6,17.1,46.1,36.5,60.5,9.9,7.4,24.7,15.2,45.3,18.6,10.4,1.6,20.3,4.1,34.4.7-12,9.7-35,4.6-35.9,11.9a24.6,24.6,0,0,1-.6,3.6c-5.3,31-26.7,86.2-60.7,129.1-3.6,4.6,11.8,21.1,10.7,31h0a70.7,70.7,0,0,0-16.8-23.4h-.1c-14.7-13.4-35.3-20.9-60-20.9-33,0-65.4,11.4-95,33a125.7,125.7,0,0,1-7-30.2C204,231.8,282.1,120.2,355.6,102.6ZM179.4,502.8A294.8,294.8,0,0,1,209.6,452c2.6-3.4,5.6-7.1,8.9-11,17.1,12.6,38.2,19.4,62.5,19.4a143.4,143.4,0,0,0,57.6-11.9c9.7-4.2,16.3-18.1,19.1-34.9,3,21.7-10.4,51.8-40.2,68.4-47.9,26.7-96,32.3-140.1,26.9l-1.9-.2c-8.3-1.3-20.5-3.5-26.2-4.6l-3-.7C157.1,503.9,177.9,506,179.4,502.8ZM318.6,823.5c-16.3,33.9-34.9,63.7-56.3,83.4-45,41.3-80.1,37.6-97.9,20.3s-21.8-46.9.7-73.2c24.4-28.5,59.4-42.7,106-42.7a297.1,297.1,0,0,1,50.9,4.8c16.7,2.4,24.7,4.1,32.3,5.8C335.4,820.9,320.6,819.3,318.6,823.5Z" transform="translate(-30.6 -16.1)"/></svg>